/* XPM */
static char *a2890bddd64b41d8b868ba0cba2475ee[] = {
/* columns rows colors chars-per-pixel */
"32 32 97 2 ",
"   c #020201",
".  c #090705",
"X  c #070A03",
"o  c #0A0B06",
"O  c #0D0B09",
"+  c #110E0B",
"@  c #0C1405",
"#  c #0F1B05",
"$  c #0E1008",
"%  c #111D06",
"&  c #14130C",
"*  c #131A08",
"=  c #191D0C",
"-  c #1A1612",
";  c #1D1915",
":  c #231C16",
">  c #281F16",
",  c #241F19",
"<  c #132107",
"1  c #172709",
"2  c #1A270B",
"3  c #1D2E0D",
"4  c #1C320A",
"5  c #1D2711",
"6  c #21340E",
"7  c #222313",
"8  c #24201B",
"9  c #2D241B",
"0  c #31261C",
"q  c #34291E",
"w  c #233111",
"e  c #253D10",
"r  c #2A3C14",
"t  c #2F351F",
"y  c #36311F",
"u  c #323B19",
"i  c #2B2621",
"p  c #2E2922",
"a  c #352C21",
"s  c #392E23",
"d  c #3C3226",
"f  c #3E342A",
"g  c #41362A",
"h  c #463A2E",
"j  c #483C2F",
"k  c #443C32",
"l  c #4A3E31",
"z  c #27420F",
"x  c #2E4415",
"c  c #2F4E13",
"v  c #324C15",
"b  c #35441A",
"n  c #364F1C",
"m  c #394F1B",
"M  c #345415",
"N  c #365C14",
"B  c #395E16",
"V  c #365619",
"C  c #3A561A",
"Z  c #3B5B1A",
"A  c #366113",
"S  c #3D611C",
"D  c #3C5020",
"F  c #40621E",
"G  c #454F28",
"H  c #435524",
"J  c #465628",
"K  c #49512B",
"L  c #4D4235",
"P  c #4E4C32",
"I  c #484138",
"U  c #504437",
"Y  c #534739",
"T  c #55493B",
"R  c #584C3E",
"E  c #4D5430",
"W  c #505633",
"Q  c #446125",
"!  c #486228",
"~  c #536534",
"^  c #59683B",
"/  c #5A4F41",
"(  c #5D5143",
")  c #615546",
"_  c #635F46",
"`  c #635748",
"'  c #65594A",
"]  c #665C50",
"[  c #6B5F50",
"{  c #6D6153",
"}  c #6E6B53",
"|  c #736758",
" . c #766A5C",
".. c #786C5E",
"X. c #7B6F61",
"o. c #7C7062",
"O. c #807466",
/* pixels */
"0 U .... .Y q / R U T U T q T o./ ( U T R Y 0 T Y q R ..L Y Y R ",
"q ) ..[ [ R s R U T U U h 0 ,  .' ' Y R L l q j g l 0 0 0 q 0 Y ",
"U ..{ ` R f : f Y Y g d j q .   ; ( U R g g q h j h q T Y L Y 0 ",
"R k O - - O o O O : g s q Y o       & s k q q q 0 q 0  ...../ 0 ",
"T f                 . l L ...   c       - T L R Y s > O.( ( j Y ",
"T L     O . o o o     O ] U +   B M O     o I , i : 9 Y ( T L L ",
"T L . . Z B A M C D 5   + Y 8   M A A r         p g 9 j j g 9 Y ",
"T l p   H C C N A A B o   s 9   & N M %           p g q y d 0 Y ",
"l h h   M A B A B B M     : U   o M @   1 z x X     . 9 s s q 0 ",
"a h h O 2 A A A A Z . .   9  .      4 c A N M N 6       + l Y U ",
"h 0 k :   B N N V O -   . g i   X M S N A A A A N v # .     a X.",
"L 0 q :   m N r X &   O 8 h k O # A B A A A A N A A N 2 . -   O ",
"Y 0 R l   : -       a R 0 l ' 8   N B A S N B B C m K } i s ( k ",
"U q ....+ +   O k { [ R 0 l ' / X c B Z Z J E j 9 Y ..) [ / ( T ",
"a ) X...0 g ..' / ) L g f 0 R R + 5 E L T U U j 9 U ..) / U k h ",
"T ..` / Y a Y U k h R T l a l R / l l U U R j g 0 L ) ` ` h k 9 ",
"X.` ) / l 0 l L T h g h s 9 f l l l k h 9 : s u G b H C C b +  .",
"| L a L l 0 l l h s f d s O 9 0   , U U f   o M B B N A B      .",
"T ,   h g u M Z 7   N N c   > +     > h f &   @ b ! S A %     U ",
"T f   O N B B M &   N N w   l O       s 0 s +     x A 1     s R ",
"/ / .   u Z A =     * Z 3   X.  e r   o q 0 U i   @ $     : 0 Y ",
"/ L k   X A Q   ; . @ Z < & T   e B     > Y R  .9         a d q ",
"l h h +   B ; . B V   t   p p   .       . q 0 k d       8 d g s ",
"a s 0 l     . O B A X     f       * V .   - U 0 - O     0 q q L ",
"T s L  .,     7 A A w     l . X C V Z n O   [ j 9 0     d R Y Y ",
"U 0 R o.h     M A N N     Y # B A A A S O   d / l R     h U L T ",
"h j q R 9 -   D ~ A F &   l   7 M Z ^ } ( f l U R h     l Y Y L ",
"h l 0 g q k a P _ E W { 9 9 : q 0 k X.( ' L l L R h     0 q R Y ",
"9 g 0 0 a U  .' [ ) ) Y h 0 0 0 g k ) ( R Y Y L g 0 j g j Y 9 0 ",
"Y 9 h h 9 R X.( ) Y T g 0 s a h 0 q s Y U Y Y j g 0 L X. ...U Y ",
"q T X.| 0 l Y R T T j g 0 s g Y U Y R a T T Y j q T ..T Y Y Y Y ",
"q Y | ..q Y U R T j h 0 g g j Y T T R R s h l l 9 R ..Y U T U R "
};
